<svg width="35" height="34" viewBox="0 0 35 34" fill="none" xmlns="http://www.w3.org/2000/svg">
<path fill-rule="evenodd" clip-rule="evenodd" d="M17.4749 34.0004C26.7782 34.0004 34.3201 26.4586 34.3201 17.1552C34.3201 7.85186 26.7782 0.309998 17.4749 0.309998C8.1715 0.309998 0.629639 7.85186 0.629639 17.1552C0.629639 26.4586 8.1715 34.0004 17.4749 34.0004ZM7.91318 8.74657L15.7216 17.612C16.1691 18.1167 16.8071 18.4023 17.4737 18.4023C18.1403 18.4023 18.7878 18.1167 19.2258 17.612L26.9009 8.90846C26.9676 8.83228 27.0438 8.78467 27.12 8.73705C26.7962 8.59422 26.4343 8.51804 26.063 8.51804H8.88447C8.52262 8.51804 8.17981 8.59422 7.86557 8.71801C7.86845 8.72089 7.8722 8.72377 7.87629 8.72691L7.87631 8.72692C7.88575 8.73417 7.89702 8.74282 7.90366 8.7561L7.91318 8.74657ZM28.1484 10.0038C28.215 9.92762 28.2626 9.8324 28.3007 9.7467H28.3103C28.5674 10.1562 28.7197 10.6418 28.7197 11.156V23.1638C28.7197 24.6303 27.5294 25.8206 26.063 25.8206H8.89398C7.42752 25.8206 6.23721 24.6303 6.23721 23.1638V11.1655C6.23721 10.6609 6.38005 10.1943 6.61811 9.79431C6.62763 9.81335 6.6562 9.85144 6.6562 9.85144L14.4551 18.7073C15.2169 19.5739 16.312 20.069 17.4642 20.069C18.6164 20.069 19.7115 19.5739 20.4733 18.7073L28.1484 10.0038Z" fill="#FFC701"/>
</svg>
