<svg width="36" height="36" viewBox="0 0 36 36" fill="none" xmlns="http://www.w3.org/2000/svg">
<g clip-path="url(#clip0_441_48415)">
<path d="M25.7001 14.33C23.2301 14.35 20.7701 14.33 18.3001 14.33C15.8501 14.33 13.4001 14.33 10.9501 14.33C10.3301 14.33 10.3301 14.33 10.3301 14.92C10.3301 17.98 10.3301 21.05 10.3301 24.11C10.3301 25.15 10.8201 25.63 11.8801 25.63C16.1701 25.63 20.4501 25.63 24.7401 25.63C25.7601 25.63 26.2601 25.14 26.2601 24.13C26.2601 21.05 26.2601 17.97 26.2601 14.9C26.2601 14.47 26.1501 14.32 25.6901 14.32L25.7001 14.33ZM22.3401 18.2C20.6601 19.88 18.9801 21.55 17.3001 23.23C17.0701 23.46 16.9001 23.51 16.6501 23.25C15.8201 22.4 14.9801 21.56 14.1401 20.73C13.9801 20.58 13.9601 20.45 14.1301 20.29C14.4601 19.98 14.7801 19.66 15.0901 19.33C15.2801 19.13 15.4201 19.15 15.6001 19.33C15.9301 19.68 16.3001 20 16.6201 20.36C16.8701 20.64 17.0301 20.66 17.3101 20.37C18.4801 19.16 19.7001 17.99 20.8701 16.78C21.1601 16.49 21.3501 16.48 21.6101 16.78C21.8501 17.06 22.1201 17.3 22.3801 17.56C22.4601 17.64 22.5501 17.72 22.5601 17.85C22.5301 17.99 22.4301 18.08 22.3301 18.17L22.3401 18.2Z" fill="#FFC701"/>
<path d="M18.2901 0.309998C8.5201 0.309998 0.600098 8.23 0.600098 18C0.600098 27.77 8.5201 35.69 18.2901 35.69C28.0601 35.69 35.9801 27.77 35.9801 18C35.9801 8.23 28.0601 0.309998 18.2901 0.309998ZM22.0101 6.8C22.0801 6.26 22.5601 5.9 23.0601 5.94C23.5701 5.98 23.9601 6.4 23.9901 6.94C23.9901 7.11 23.9901 7.29 23.9901 7.47C23.9901 7.69 23.9901 7.91 23.9901 8.13C23.9901 8.51 23.9901 8.89 23.9901 9.27C23.9701 9.84 23.5701 10.26 23.0501 10.29C22.4701 10.32 22.0501 9.95 22.0001 9.34C21.9301 8.5 21.9001 7.65 22.0101 6.81V6.8ZM12.5901 6.99C12.6101 6.39 13.0201 5.96 13.5601 5.94C14.0801 5.92 14.5401 6.3 14.5901 6.88C14.6701 7.72 14.6801 8.57 14.5801 9.42C14.5101 9.99 14.0501 10.32 13.5001 10.28C12.9901 10.24 12.6101 9.83 12.5901 9.28C12.5801 8.9 12.5901 8.52 12.5901 8.14C12.5901 7.76 12.5801 7.38 12.5901 7V6.99ZM25.2201 28.05C22.9201 28.05 20.6101 28.05 18.3101 28.05C16.0101 28.05 13.7601 28.05 11.4801 28.05C9.3101 28.05 7.8301 26.56 7.8301 24.39C7.8301 20.37 7.8301 16.35 7.8301 12.34C7.8301 10 9.6701 8.39 12.0001 8.67C12.2601 8.7 12.3601 8.83 12.3601 9.07C12.3601 9.47 12.3601 9.86 12.3601 10.26C12.3801 10.94 12.8201 11.43 13.4401 11.49C14.1701 11.55 14.7001 11.16 14.8301 10.45C14.9201 9.98 14.8701 9.51 14.8701 9.05C14.8701 8.78 14.9701 8.68 15.2301 8.68C17.2701 8.68 19.3101 8.68 21.3501 8.68C21.6301 8.68 21.7401 8.79 21.7301 9.07C21.7101 9.46 21.7101 9.86 21.7301 10.26C21.7701 10.77 21.9701 11.21 22.4801 11.41C22.9301 11.59 23.3701 11.55 23.7701 11.25C24.0801 11.02 24.2101 10.71 24.2201 10.34C24.2301 9.93 24.2201 9.52 24.2301 9.11C24.2301 8.88 24.2901 8.72 24.5701 8.69C26.9801 8.47 28.4001 9.94 28.7001 11.55C28.7401 11.78 28.7501 12.02 28.7501 12.25C28.7501 16.34 28.7501 20.43 28.7501 24.52C28.7501 26.54 27.2401 28.06 25.2101 28.06L25.2201 28.05Z" fill="#FFC701"/>
</g>
<defs>
<clipPath id="clip0_441_48415">
<rect width="35.38" height="35.38" fill="white" transform="translate(0.600098 0.309998)"/>
</clipPath>
</defs>
</svg>
