<svg width="34" height="34" viewBox="0 0 34 34" fill="none" xmlns="http://www.w3.org/2000/svg">
<path fill-rule="evenodd" clip-rule="evenodd" d="M34 17.1552C34 26.4586 26.4581 34.0004 17.1547 34.0004C7.85138 34.0004 0.309525 26.4586 0.309525 17.1552C0.309525 7.85186 7.85138 0.309998 17.1547 0.309998C26.4581 0.309998 34 7.85186 34 17.1552ZM21.2214 11.9463C21.2214 11.2988 21.7452 10.7846 22.3832 10.7846C23.0307 10.7846 23.5449 11.2988 23.5449 11.9463C23.5449 12.5939 23.0307 13.1081 22.3832 13.1081C21.7356 13.1081 21.2214 12.5939 21.2214 11.9463ZM17.241 12.2696C14.5557 12.2696 12.3751 14.4502 12.3751 17.1356C12.3751 19.8209 14.5557 22.0015 17.241 22.0015C19.9264 22.0015 22.107 19.8209 22.107 17.1356C22.107 14.4502 19.9264 12.2696 17.241 12.2696ZM17.241 20.2494C15.527 20.2494 14.1272 18.8496 14.1272 17.1356C14.1272 15.4215 15.527 14.0217 17.241 14.0217C18.9551 14.0217 20.3549 15.4215 20.3549 17.1356C20.3549 18.8496 18.9551 20.2494 17.241 20.2494ZM13.2129 27.0106H21.0975C24.3637 27.0106 27.03 24.3538 27.03 21.0781V13.1935C27.03 9.91781 24.3733 7.26105 21.0975 7.26105H13.2129C9.93722 7.26105 7.28046 9.91781 7.28046 13.1935V21.0781C7.28046 24.3443 9.93722 27.0106 13.2129 27.0106ZM9.13733 13.1935C9.13733 10.9462 10.9656 9.11792 13.2129 9.11792H21.0975C23.3448 9.11792 25.1731 10.9462 25.1731 13.1935V21.0781C25.1731 23.3254 23.3448 25.1537 21.0975 25.1537H13.2129C10.9656 25.1537 9.13733 23.3254 9.13733 21.0781V13.1935Z" fill="#FFC701"/>
</svg>
