<svg width="35" height="34" viewBox="0 0 35 34" fill="none" xmlns="http://www.w3.org/2000/svg">
<path fill-rule="evenodd" clip-rule="evenodd" d="M34.66 17.1552C34.66 26.4586 27.1181 34.0004 17.8148 34.0004C8.51143 34.0004 0.969574 26.4586 0.969574 17.1552C0.969574 7.85186 8.51143 0.309998 17.8148 0.309998C27.1181 0.309998 34.66 7.85186 34.66 17.1552ZM26.0515 15.2415C26.2229 15.2415 26.3943 15.232 26.5657 15.2129V15.2034V11.6992C23.8423 11.5087 21.6617 9.38519 21.376 6.68082H18.3574L18.3288 21.4025C18.3288 23.2118 16.729 24.6306 14.9293 24.6306C13.1296 24.6306 11.6631 23.1642 11.6631 21.3644C11.6631 19.5647 13.12 18.0982 14.9293 18.0982C15.0636 18.0982 15.1811 18.1151 15.3056 18.1329C15.3134 18.1341 15.3213 18.1352 15.3292 18.1363V14.9749C15.1959 14.9653 15.0626 14.9558 14.9293 14.9558C11.3869 14.9558 8.52069 17.8221 8.52069 21.3644C8.52069 24.9068 11.3869 27.773 14.9293 27.773C18.4716 27.773 21.3379 24.9068 21.3379 21.3644V12.699C22.3854 14.2892 24.1566 15.2415 26.0515 15.2415Z" fill="#FFC701"/>
</svg>
