<svg width="63" height="29" viewBox="0 0 63 29" fill="none" xmlns="http://www.w3.org/2000/svg">
<g clip-path="url(#clip0_625_10040)">
<path d="M11.8898 29C8.38283 29 5.04493 27.4266 2.67241 24.4828C-0.769109 20.2068 -0.900007 14.4835 2.33426 9.89506C5.05039 6.0686 11.0553 3.43722 16.8421 6.10697L17.3384 6.33722L16.8857 7.33495L16.3894 7.1047C11.1371 4.68164 5.68306 7.06084 3.22327 10.531C0.278073 14.7083 0.392608 19.9108 3.51779 23.792C6.68116 27.7227 11.7371 28.9616 16.4003 26.9442C22.0344 24.5376 26.6703 20.5028 31.1536 16.6051C35.6968 12.6525 40.3928 8.56841 46.1632 6.10697C52.6754 3.3824 57.8349 6.20565 60.4965 9.75253C63.2944 13.4858 64.3525 19.4777 60.4092 24.4444C57.1095 28.7368 51.11 30.2115 46.1523 27.9365C42.089 26.0726 38.0857 23.4686 33.9243 19.982L33.5043 19.6312L34.2024 18.7869L34.6224 19.1378C38.7129 22.5641 42.6344 25.1187 46.605 26.9387C51.0337 28.9671 56.6023 27.6021 59.5529 23.7646C63.1363 19.2529 62.1709 13.8038 59.6293 10.4104C57.2186 7.19241 52.5281 4.63778 46.5941 7.11567C40.9818 9.51132 36.3513 13.5406 31.8735 17.4329C27.3248 21.3909 22.6234 25.4805 16.8366 27.9529C15.2059 28.6601 13.5315 29 11.8953 29H11.8898Z" fill="#FFC701"/>
<path d="M25.8251 11.4849L18.8329 12.1756L11.8408 12.8664L16.2641 7.11569C16.7222 4.74197 17.1804 2.37372 17.644 0L21.7345 5.74518L25.8251 11.4904V11.4849Z" fill="#FFC701"/>
<path d="M38.1474 17.5904L32.2822 18.8553L33.544 24.7211L39.4091 23.4562L38.1474 17.5904Z" fill="#FFC701"/>
</g>
<defs>
<clipPath id="clip0_625_10040">
<rect width="63" height="29" fill="white"/>
</clipPath>
</defs>
</svg>
