<svg width="52" height="17" viewBox="0 0 52 17" fill="none" xmlns="http://www.w3.org/2000/svg">
<g clip-path="url(#clip0_627_12222)">
<path d="M39.3722 8.92968C39.3722 11.1791 39.3722 13.4285 39.3722 15.6779C39.3722 16.1064 39.371 16.1076 38.9207 16.1076C37.8729 16.1076 36.8252 16.1007 35.7786 16.1122C35.5044 16.1156 35.411 16.0249 35.4133 15.7641C35.4181 15.2207 35.4074 15.2207 35.9606 15.2207C36.3294 15.2207 36.6994 15.2161 37.0682 15.2207C37.2586 15.2241 37.3473 15.1483 37.3365 14.9645C37.3329 14.8979 37.3365 14.8301 37.3365 14.7634C37.3365 10.5714 37.3365 6.37927 37.3365 2.18604C37.3365 1.8927 37.182 1.74604 36.8731 1.74604C36.4839 1.74604 36.0947 1.74029 35.7055 1.74719C35.5032 1.75063 35.4253 1.67136 35.4145 1.47721C35.3822 0.859139 35.3762 0.85799 36.0312 0.859139C38.4154 0.861436 40.8007 0.832715 43.1837 0.87752C44.7476 0.90739 46.2504 1.25663 47.6071 2.04358C49.3039 3.02813 50.3397 4.47681 50.7624 6.32413C51.1133 7.86356 51.1121 9.40644 50.6379 10.9229C49.8344 13.4928 47.9963 15.0403 45.3451 15.7572C44.8446 15.8927 44.3333 15.9755 43.8183 16.0329C43.4531 16.0743 43.3992 16.0237 43.3825 15.6745C43.3665 15.3405 43.5318 15.1529 43.8782 15.1115C46.3546 14.8151 47.9424 13.3952 48.443 10.9126C48.8261 9.01239 48.813 7.09959 48.2083 5.23274C47.5916 3.32798 46.1917 2.26531 44.1692 1.91262C43.5585 1.80578 42.943 1.75867 42.3251 1.74833C41.4869 1.73455 40.6487 1.74489 39.8116 1.74489C39.5195 1.74489 39.373 1.88964 39.3722 2.17915C39.3722 4.42856 39.3722 6.67797 39.3722 8.92738V8.92968Z" fill="#C3482D"/>
<path d="M2.73239 8.45407C2.73239 6.34826 2.73239 4.24245 2.73239 2.13665C2.73239 1.75408 2.72401 1.74834 2.33483 1.74719C1.93608 1.74604 1.53612 1.73915 1.13737 1.74949C0.908652 1.75523 0.817645 1.67596 0.811657 1.45194C0.79609 0.859145 0.787708 0.859145 1.39841 0.859145C3.71311 0.860294 6.02781 0.849954 8.34251 0.869485C9.52441 0.879824 10.6596 1.10155 11.6834 1.71617C13.2832 2.6766 13.4126 4.73071 12.4462 5.8623C12.2989 6.03463 12.1421 6.11964 11.9098 6.10701C11.6715 6.09437 11.4308 6.10586 11.1913 6.10356C10.8153 6.10126 10.7817 6.0622 10.8201 5.70147C10.8931 5.02366 10.9266 4.3447 10.8033 3.67033C10.6464 2.80297 10.1387 2.21591 9.2454 1.95283C8.76402 1.81038 8.26707 1.76098 7.76892 1.75064C6.8816 1.73226 5.99308 1.75294 5.10457 1.7403C4.83873 1.73685 4.76209 1.82761 4.76209 2.07461C4.76808 6.34366 4.76808 10.6127 4.76209 14.8818C4.76209 15.1518 4.86148 15.2287 5.12971 15.2218C5.76796 15.208 6.40741 15.2264 7.04566 15.2138C7.31149 15.2092 7.41926 15.2885 7.41567 15.5573C7.40849 16.1041 7.42046 16.1041 6.84568 16.1041C4.97045 16.1041 3.09402 16.1053 1.2188 16.1018C1.08109 16.1018 0.876321 16.1673 0.840397 15.972C0.797288 15.7423 0.751784 15.4941 0.883505 15.2735C0.930206 15.1954 1.04756 15.2195 1.13497 15.2184C1.54451 15.2172 1.95404 15.2035 2.36237 15.2218C2.65575 15.2356 2.73718 15.1253 2.73598 14.8554C2.7276 12.7208 2.73119 10.5863 2.73119 8.45177L2.73239 8.45407Z" fill="#C3482D"/>
<path d="M19.7386 8.49199C19.7386 10.607 19.7386 12.722 19.7386 14.837C19.7386 15.215 19.7434 15.2184 20.1421 15.2195C20.5517 15.2195 20.96 15.2241 21.3695 15.2195C21.5707 15.2161 21.6497 15.2965 21.6605 15.4907C21.6917 16.1076 21.6976 16.1076 21.045 16.1076C19.4285 16.1076 17.8131 16.1087 16.1965 16.1053C16.0588 16.1053 15.8552 16.1719 15.8145 15.9789C15.7666 15.7492 15.7271 15.5022 15.8528 15.2793C15.8983 15.1989 16.0145 15.2218 16.1031 15.2207C16.5126 15.2184 16.9222 15.2058 17.3293 15.2241C17.6179 15.2368 17.7077 15.1357 17.7065 14.8611C17.6981 12.2866 17.7017 9.71205 17.7017 7.13752C17.7017 5.47172 17.7017 3.80706 17.7017 2.14126C17.7017 1.74721 17.6993 1.74606 17.2802 1.74606C16.891 1.74606 16.5019 1.73572 16.1127 1.7495C15.86 1.75869 15.7846 1.65415 15.7822 1.42668C15.775 0.85916 15.7666 0.85916 16.3641 0.85916C17.9903 0.85916 19.6165 0.858011 21.2426 0.861457C21.3815 0.861457 21.5863 0.797123 21.6294 0.983233C21.6821 1.21185 21.712 1.46 21.5983 1.68402C21.5552 1.76903 21.4378 1.74376 21.3504 1.74491C20.9313 1.74721 20.5122 1.75984 20.0942 1.74146C19.8152 1.72882 19.7338 1.82877 19.735 2.08841C19.7434 4.22294 19.7398 6.35632 19.7398 8.49085L19.7386 8.49199Z" fill="#C3482D"/>
<path d="M27.1966 1.47381C27.2349 1.69784 27.1308 1.73804 27.0254 1.7771C26.7739 1.87131 26.526 1.96781 26.2997 2.11371C24.9178 3.00406 24.8544 5.04093 26.18 6.0094C26.9152 6.5459 27.7894 6.80209 28.6312 7.12147C29.6406 7.50518 30.6693 7.84178 31.638 8.32659C34.5059 9.76263 34.3 12.9725 32.9349 14.6038C32.2882 15.3758 31.456 15.8698 30.4573 16.1168C30.2633 16.1651 30.1663 16.1237 30.0993 15.9376C29.8789 15.3299 29.8729 15.331 30.498 15.107C32.2775 14.4671 32.8822 12.3705 31.6823 10.9597C31.2536 10.4554 30.6549 10.1785 30.0382 9.94644C28.9425 9.53401 27.8349 9.1526 26.7452 8.72753C25.7932 8.35646 24.8891 7.88314 24.3191 7.02726C23.3719 5.60386 23.4018 4.13106 24.2509 2.68009C24.8005 1.74149 25.6866 1.1912 26.7512 0.887909C26.938 0.833914 27.0326 0.878718 27.0769 1.05794C27.1188 1.22567 27.1727 1.3888 27.1978 1.47381H27.1966Z" fill="#C3482D"/>
<path d="M13.6427 16.1065C12.8824 16.3455 12.4261 15.8882 11.9735 15.1645C10.4264 12.6979 8.8014 10.2774 7.20757 7.83839C7.15848 7.76257 7.04591 7.68674 7.11417 7.58794C7.17524 7.49833 7.29738 7.53739 7.39438 7.53625C7.89252 7.5328 8.39186 7.54888 8.89001 7.52935C9.17141 7.51901 9.34505 7.60977 9.49952 7.83839C11.0287 10.1016 12.5686 12.3579 14.105 14.6165C14.3828 15.0243 14.6594 15.4333 14.942 15.84C15.0725 16.0273 15.0414 16.1123 14.7923 16.1077C14.463 16.1008 14.1337 16.1054 13.6439 16.1054L13.6427 16.1065Z" fill="#C3482D"/>
<path d="M25.0629 13.7111C25.0629 14.3992 25.0569 15.0885 25.0665 15.7767C25.0701 16.0225 24.9815 16.1213 24.718 16.111C24.3205 16.0961 23.9205 16.1006 23.5217 16.1087C23.3122 16.1133 23.208 16.0455 23.208 15.8318C23.2116 14.4073 23.2116 12.9816 23.208 11.557C23.208 11.3548 23.2954 11.2606 23.5122 11.2641C23.9313 11.271 24.3492 11.2721 24.7683 11.2641C24.9934 11.2595 25.0641 11.3594 25.0629 11.5605C25.0581 12.2773 25.0605 12.9954 25.0605 13.7122L25.0629 13.7111Z" fill="#C3482D"/>
<path d="M33.3303 2.88326C33.3303 3.42896 33.3207 3.9735 33.3351 4.5192C33.3411 4.77309 33.2369 4.8581 32.9818 4.84891C32.5938 4.83513 32.2047 4.84087 31.8155 4.84662C31.6119 4.85006 31.5293 4.76505 31.5293 4.57205C31.5329 3.42436 31.5329 2.27668 31.5293 1.129C31.5293 0.933697 31.6191 0.855577 31.8203 0.859023C32.219 0.865916 32.6178 0.868214 33.0165 0.859023C33.2489 0.853279 33.3363 0.942888 33.3339 1.16346C33.3255 1.73673 33.3315 2.31115 33.3315 2.88556L33.3303 2.88326Z" fill="#C3482D"/>
</g>
<defs>
<clipPath id="clip0_627_12222">
<rect width="50.2145" height="15.3197" fill="white" transform="translate(0.797363 0.851074)"/>
</clipPath>
</defs>
</svg>
