<svg width="18" height="16" viewBox="0 0 18 16" fill="none" xmlns="http://www.w3.org/2000/svg">
<path d="M1.8262 8L4.20056 9.69134L4.45502 9.8726L4.40366 10.1808L3.92549 13.0499L6.80978 12.5733L7.11615 12.5227L7.29735 12.7749L8.99893 15.1431L10.7005 12.7749L10.8817 12.5227L11.1881 12.5733L14.0724 13.0499L13.5942 10.1808L13.5428 9.8726L13.7973 9.69134L16.1717 8L13.7973 6.30866L13.5428 6.1274L13.5942 5.81922L14.0724 2.95013L11.1881 3.42671L10.8817 3.47733L10.7005 3.22515L8.99893 0.856897L7.29735 3.22515L7.11616 3.47733L6.80978 3.42671L3.92549 2.95013L4.40366 5.81922L4.45502 6.1274L4.20056 6.30866L1.8262 8Z" fill="#FFC701" stroke="#A00F0F" stroke-miterlimit="10"/>
</svg>
